<svg width="66" height="68" viewBox="0 0 66 68" fill="none" xmlns="http://www.w3.org/2000/svg">
<path fill-rule="evenodd" clip-rule="evenodd" d="M33.075 0.25C24.6056 0.25 16.8881 3.0475 12.3225 5.33313C11.91 5.53938 11.5256 5.74188 11.1675 5.93687C10.4588 6.32312 9.855 6.68313 9.375 7L14.5688 14.6463L17.0138 15.6194C26.5688 20.44 39.3825 20.44 48.9394 15.6194L51.7144 14.1794L56.6269 7C55.6092 6.33624 54.5508 5.73694 53.4581 5.20562C48.9169 2.94437 41.385 0.25 33.075 0.25ZM20.9944 8.905C19.1552 8.56084 17.3387 8.105 15.555 7.54C19.8319 5.64062 26.2069 3.625 33.0731 3.625C37.83 3.625 42.3281 4.5925 46.0481 5.81875C41.6888 6.43188 37.0369 7.4725 32.6044 8.75312C29.1169 9.76188 25.0406 9.65313 20.9944 8.905ZM50.9194 18.4L50.46 18.6325C39.9469 23.935 26.0044 23.935 15.4913 18.6325L15.0563 18.4112C-0.734995 35.7381 -12.7912 67.7444 33.075 67.7444C78.9375 67.7444 66.5869 35.14 50.9194 18.4ZM31.125 34C30.1304 34 29.1766 34.3951 28.4734 35.0984C27.7701 35.8016 27.375 36.7554 27.375 37.75C27.375 38.7446 27.7701 39.6984 28.4734 40.4016C29.1766 41.1049 30.1304 41.5 31.125 41.5V34ZM34.875 30.25V28.375H31.125V30.25C29.1359 30.25 27.2282 31.0402 25.8217 32.4467C24.4152 33.8532 23.625 35.7609 23.625 37.75C23.625 39.7391 24.4152 41.6468 25.8217 43.0533C27.2282 44.4598 29.1359 45.25 31.125 45.25V52.75C30.3495 52.7502 29.593 52.5099 28.9597 52.0623C28.3263 51.6147 27.8474 50.9818 27.5888 50.2506C27.4232 49.7817 27.0781 49.3977 26.6294 49.1833C26.1807 48.9688 25.6652 48.9413 25.1963 49.1069C24.7273 49.2725 24.3434 49.6176 24.1289 50.0662C23.9144 50.5149 23.8869 51.0304 24.0525 51.4994C24.5697 52.9618 25.5275 54.228 26.7941 55.1235C28.0607 56.0191 29.5738 56.5 31.125 56.5V58.375H34.875V56.5C36.8641 56.5 38.7718 55.7098 40.1783 54.3033C41.5848 52.8968 42.375 50.9891 42.375 49C42.375 47.0109 41.5848 45.1032 40.1783 43.6967C38.7718 42.2902 36.8641 41.5 34.875 41.5V34C36.5063 34 37.8956 35.0406 38.4131 36.4994C38.4899 36.738 38.6138 36.9589 38.7774 37.1488C38.941 37.3388 39.1411 37.494 39.3657 37.6053C39.5904 37.7166 39.835 37.7817 40.0853 37.7968C40.3355 37.8118 40.5863 37.7766 40.8227 37.6931C41.059 37.6095 41.2763 37.4795 41.4615 37.3105C41.6468 37.1416 41.7962 36.9372 41.9011 36.7095C42.006 36.4818 42.0641 36.2353 42.0721 35.9848C42.0801 35.7342 42.0377 35.4845 41.9475 35.2506C41.4303 33.7882 40.4725 32.522 39.2059 31.6265C37.9393 30.7309 36.4262 30.25 34.875 30.25ZM34.875 45.25V52.75C35.8696 52.75 36.8234 52.3549 37.5267 51.6517C38.2299 50.9484 38.625 49.9946 38.625 49C38.625 48.0054 38.2299 47.0516 37.5267 46.3484C36.8234 45.6451 35.8696 45.25 34.875 45.25Z" fill="black"/>
</svg>
