<svg width="84" height="84" viewBox="0 0 84 84" fill="none" xmlns="http://www.w3.org/2000/svg">
<path d="M19.5 45.75H4.5C2.25 45.75 0.75 47.25 0.75 49.5V79.5C0.75 81.75 2.25 83.25 4.5 83.25H19.5C21.75 83.25 23.25 81.75 23.25 79.5V49.5C23.25 47.25 21.75 45.75 19.5 45.75ZM79.5 30.75H64.5C62.25 30.75 60.75 32.25 60.75 34.5V79.5C60.75 81.75 62.25 83.25 64.5 83.25H79.5C81.75 83.25 83.25 81.75 83.25 79.5V34.5C83.25 32.25 81.75 30.75 79.5 30.75ZM49.5 0.75H34.5C32.25 0.75 30.75 2.25 30.75 4.5V79.5C30.75 81.75 32.25 83.25 34.5 83.25H49.5C51.75 83.25 53.25 81.75 53.25 79.5V4.5C53.25 2.25 51.75 0.75 49.5 0.75Z" fill="black"/>
</svg>
