<svg width="77" height="73" viewBox="0 0 77 73" fill="none" xmlns="http://www.w3.org/2000/svg">
<path d="M60.75 7.25H38.5425L27.711 18.6485L27.2115 19.1255C26.1675 20.0197 24.8754 20.574 23.508 20.714L22.815 20.75H1.33564e-07V52.25L0.0225006 52.988C0.209869 55.8381 1.47429 58.5102 3.5593 60.4623C5.6443 62.4145 8.39377 63.5004 11.25 63.5H40.671C40.5569 62.7554 40.4997 62.0033 40.5 61.25C40.4996 58.4429 41.5487 55.7371 43.4412 53.6639C45.3338 51.5907 47.933 50.2999 50.7285 50.045C49.4886 48.6657 48.5461 47.0456 47.96 45.2859C47.3739 43.5263 47.1567 41.6647 47.3219 39.8173C47.4871 37.97 48.0312 36.1765 48.9203 34.5487C49.8093 32.921 51.0243 31.4938 52.4893 30.3564C53.9543 29.219 55.638 28.3957 57.4353 27.9377C59.2326 27.4798 61.105 27.3972 62.9356 27.695C64.7663 27.9927 66.516 28.6645 68.0755 29.6685C69.6351 30.6724 70.971 31.9869 72 33.53V18.5L71.9775 17.762L71.9055 17.033C71.5495 14.3265 70.2216 11.8417 68.1692 10.0418C66.1167 8.24185 63.4799 7.24962 60.75 7.25ZM26.694 1.445C25.6521 0.826772 24.463 0.500356 23.2515 0.5H11.25L10.512 0.522501C7.66192 0.709869 4.98981 1.97429 3.03768 4.0593C1.08555 6.1443 -0.000439724 8.89377 1.33564e-07 11.75V16.25H22.815L23.184 16.2185C23.5434 16.1597 23.8831 16.0145 24.174 15.7955L24.4485 15.548L33.2325 6.305L27.3015 1.85L26.694 1.445ZM69.75 41C69.75 43.3869 68.8018 45.6761 67.114 47.364C65.4261 49.0518 63.1369 50 60.75 50C58.3631 50 56.0739 49.0518 54.386 47.364C52.6982 45.6761 51.75 43.3869 51.75 41C51.75 38.6131 52.6982 36.3239 54.386 34.636C56.0739 32.9482 58.3631 32 60.75 32C63.1369 32 65.4261 32.9482 67.114 34.636C68.8018 36.3239 69.75 38.6131 69.75 41ZM76.5 61.25C76.5 66.8525 72 72.5 60.75 72.5C49.5 72.5 45 66.875 45 61.25C45 59.4598 45.7112 57.7429 46.977 56.477C48.2429 55.2112 49.9598 54.5 51.75 54.5H69.75C71.5402 54.5 73.2571 55.2112 74.523 56.477C75.7888 57.7429 76.5 59.4598 76.5 61.25Z" fill="black"/>
</svg>
