<?xml version="1.0" encoding="utf-8"?><svg viewBox="0 0 84 84" xmlns="http://www.w3.org/2000/svg" xmlns:xlink="http://www.w3.org/1999/xlink"><style>:root>svg{display:none}:root>svg:target{display:block}</style><svg fill="none" viewBox="0 0 66 68" id="src--work--cost" xmlns="http://www.w3.org/2000/svg"><path fill-rule="evenodd" clip-rule="evenodd" d="M33.075.25c-8.47 0-16.187 2.797-20.753 5.083-.412.206-.796.409-1.154.604-.71.386-1.313.746-1.793 1.063l5.194 7.646 2.445.973c9.555 4.821 22.369 4.821 31.925 0l2.775-1.44L56.627 7a29.071 29.071 0 0 0-3.169-1.794C48.917 2.944 41.385.25 33.075.25Zm-12.08 8.655c-1.84-.344-3.656-.8-5.44-1.365 4.277-1.9 10.652-3.915 17.518-3.915 4.757 0 9.255.968 12.975 2.194-4.36.613-9.011 1.654-13.444 2.934-3.487 1.009-7.563.9-11.61.152ZM50.918 18.4l-.459.233c-10.513 5.302-24.456 5.302-34.969 0l-.435-.222C-.735 35.738-12.79 67.744 33.075 67.744c45.862 0 33.512-32.604 17.844-49.344ZM31.125 34a3.75 3.75 0 1 0 0 7.5V34Zm3.75-3.75v-1.875h-3.75v1.875a7.5 7.5 0 0 0 0 15v7.5a3.75 3.75 0 0 1-3.536-2.5 1.875 1.875 0 1 0-3.537 1.25 7.502 7.502 0 0 0 7.073 5v1.875h3.75V56.5a7.5 7.5 0 0 0 0-15V34c1.631 0 3.02 1.04 3.538 2.5a1.876 1.876 0 1 0 3.535-1.25 7.502 7.502 0 0 0-7.073-5Zm0 15v7.5a3.75 3.75 0 0 0 0-7.5Z" fill="#000"/></svg><svg fill="none" viewBox="0 0 84 84" id="src--work--count" xmlns="http://www.w3.org/2000/svg"><path d="M19.5 45.75h-15c-2.25 0-3.75 1.5-3.75 3.75v30c0 2.25 1.5 3.75 3.75 3.75h15c2.25 0 3.75-1.5 3.75-3.75v-30c0-2.25-1.5-3.75-3.75-3.75Zm60-15h-15c-2.25 0-3.75 1.5-3.75 3.75v45c0 2.25 1.5 3.75 3.75 3.75h15c2.25 0 3.75-1.5 3.75-3.75v-45c0-2.25-1.5-3.75-3.75-3.75Zm-30-30h-15c-2.25 0-3.75 1.5-3.75 3.75v75c0 2.25 1.5 3.75 3.75 3.75h15c2.25 0 3.75-1.5 3.75-3.75v-75c0-2.25-1.5-3.75-3.75-3.75Z" fill="#000"/></svg><svg fill="none" viewBox="0 0 77 73" id="src--work--information" xmlns="http://www.w3.org/2000/svg"><path d="M60.75 7.25H38.542L27.711 18.648l-.5.477a6.75 6.75 0 0 1-3.703 1.589l-.693.036H0v31.5l.023.738A11.25 11.25 0 0 0 11.25 63.5h29.421a14.815 14.815 0 0 1-.171-2.25 11.25 11.25 0 0 1 10.228-11.205A13.5 13.5 0 1 1 72 33.53V18.5l-.022-.738-.072-.729A11.25 11.25 0 0 0 60.75 7.25ZM26.694 1.445A6.75 6.75 0 0 0 23.252.5H11.25l-.738.023A11.25 11.25 0 0 0 0 11.75v4.5h22.815l.369-.032c.36-.058.7-.203.99-.422l.274-.248 8.785-9.243-5.931-4.455-.608-.405ZM69.75 41a9 9 0 1 1-18 0 9 9 0 0 1 18 0Zm6.75 20.25c0 5.603-4.5 11.25-15.75 11.25S45 66.875 45 61.25a6.75 6.75 0 0 1 6.75-6.75h18a6.75 6.75 0 0 1 6.75 6.75Z" fill="#000"/></svg><svg fill="none" viewBox="0 0 66 68" id="work--cost" xmlns="http://www.w3.org/2000/svg"><path fill-rule="evenodd" clip-rule="evenodd" d="M33.075.25c-8.47 0-16.187 2.797-20.753 5.083-.412.206-.796.409-1.154.604-.71.386-1.313.746-1.793 1.063l5.194 7.646 2.445.973c9.555 4.821 22.369 4.821 31.925 0l2.775-1.44L56.627 7a29.071 29.071 0 0 0-3.169-1.794C48.917 2.944 41.385.25 33.075.25zm-12.08 8.655c-1.84-.344-3.656-.8-5.44-1.365 4.277-1.9 10.652-3.915 17.518-3.915 4.757 0 9.255.968 12.975 2.194-4.36.613-9.011 1.654-13.444 2.934-3.487 1.009-7.563.9-11.61.152zM50.918 18.4l-.459.233c-10.513 5.302-24.456 5.302-34.969 0l-.435-.222C-.735 35.738-12.79 67.744 33.075 67.744c45.862 0 33.512-32.604 17.844-49.344zM31.125 34a3.75 3.75 0 1 0 0 7.5V34zm3.75-3.75v-1.875h-3.75v1.875a7.5 7.5 0 0 0 0 15v7.5a3.75 3.75 0 0 1-3.536-2.5 1.875 1.875 0 1 0-3.537 1.25 7.502 7.502 0 0 0 7.073 5v1.875h3.75V56.5a7.5 7.5 0 0 0 0-15V34c1.631 0 3.02 1.04 3.538 2.5a1.876 1.876 0 1 0 3.535-1.25 7.502 7.502 0 0 0-7.073-5zm0 15v7.5a3.75 3.75 0 0 0 0-7.5z" fill="#000"/></svg><svg fill="none" viewBox="0 0 84 84" id="work--count" xmlns="http://www.w3.org/2000/svg"><path d="M19.5 45.75h-15c-2.25 0-3.75 1.5-3.75 3.75v30c0 2.25 1.5 3.75 3.75 3.75h15c2.25 0 3.75-1.5 3.75-3.75v-30c0-2.25-1.5-3.75-3.75-3.75zm60-15h-15c-2.25 0-3.75 1.5-3.75 3.75v45c0 2.25 1.5 3.75 3.75 3.75h15c2.25 0 3.75-1.5 3.75-3.75v-45c0-2.25-1.5-3.75-3.75-3.75zm-30-30h-15c-2.25 0-3.75 1.5-3.75 3.75v75c0 2.25 1.5 3.75 3.75 3.75h15c2.25 0 3.75-1.5 3.75-3.75v-75c0-2.25-1.5-3.75-3.75-3.75z" fill="#000"/></svg><svg fill="none" viewBox="0 0 77 73" id="work--information" xmlns="http://www.w3.org/2000/svg"><path d="M60.75 7.25H38.542L27.711 18.648l-.5.477a6.75 6.75 0 0 1-3.703 1.589l-.693.036H0v31.5l.023.738A11.25 11.25 0 0 0 11.25 63.5h29.421a14.815 14.815 0 0 1-.171-2.25 11.25 11.25 0 0 1 10.228-11.205A13.5 13.5 0 1 1 72 33.53V18.5l-.022-.738-.072-.729A11.25 11.25 0 0 0 60.75 7.25zM26.694 1.445A6.75 6.75 0 0 0 23.252.5H11.25l-.738.023A11.25 11.25 0 0 0 0 11.75v4.5h22.815l.369-.032c.36-.058.7-.203.99-.422l.274-.248 8.785-9.243-5.931-4.455-.608-.405zM69.75 41a9 9 0 1 1-18 0 9 9 0 0 1 18 0zm6.75 20.25c0 5.603-4.5 11.25-15.75 11.25S45 66.875 45 61.25a6.75 6.75 0 0 1 6.75-6.75h18a6.75 6.75 0 0 1 6.75 6.75z" fill="#000"/></svg></svg>