<svg width="66" height="68" fill="none" xmlns="http://www.w3.org/2000/svg"><path fill-rule="evenodd" clip-rule="evenodd" d="M33.075.25c-8.47 0-16.187 2.797-20.753 5.083-.412.206-.796.409-1.154.604-.71.386-1.313.746-1.793 1.063l5.194 7.646 2.445.973c9.555 4.821 22.369 4.821 31.925 0l2.775-1.44L56.627 7a29.071 29.071 0 00-3.169-1.794C48.917 2.944 41.385.25 33.075.25zm-12.08 8.655c-1.84-.344-3.656-.8-5.44-1.365 4.277-1.9 10.652-3.915 17.518-3.915 4.757 0 9.255.968 12.975 2.194-4.36.613-9.011 1.654-13.444 2.934-3.487 1.009-7.563.9-11.61.152zM50.918 18.4l-.459.233c-10.513 5.302-24.456 5.302-34.969 0l-.435-.222C-.735 35.738-12.79 67.744 33.075 67.744c45.862 0 33.512-32.604 17.844-49.344zM31.125 34a3.75 3.75 0 100 7.5V34zm3.75-3.75v-1.875h-3.75v1.875a7.5 7.5 0 000 15v7.5a3.75 3.75 0 01-3.536-2.5 1.875 1.875 0 10-3.537 1.25 7.502 7.502 0 007.073 5v1.875h3.75V56.5a7.5 7.5 0 000-15V34c1.631 0 3.02 1.04 3.538 2.5a1.876 1.876 0 103.535-1.25 7.502 7.502 0 00-7.073-5zm0 15v7.5a3.75 3.75 0 000-7.5z" fill="#000"/></svg>