<svg width="77" height="73" fill="none" xmlns="http://www.w3.org/2000/svg"><path d="M60.75 7.25H38.542L27.711 18.648l-.5.477a6.75 6.75 0 01-3.703 1.589l-.693.036H0v31.5l.023.738A11.25 11.25 0 0011.25 63.5h29.421a14.815 14.815 0 01-.171-2.25 11.25 11.25 0 0110.228-11.205A13.5 13.5 0 1172 33.53V18.5l-.022-.738-.072-.729A11.25 11.25 0 0060.75 7.25zM26.694 1.445A6.75 6.75 0 0023.252.5H11.25l-.738.023A11.25 11.25 0 000 11.75v4.5h22.815l.369-.032c.36-.058.7-.203.99-.422l.274-.248 8.785-9.243-5.931-4.455-.608-.405zM69.75 41a9 9 0 11-18 0 9 9 0 0118 0zm6.75 20.25c0 5.603-4.5 11.25-15.75 11.25S45 66.875 45 61.25a6.75 6.75 0 016.75-6.75h18a6.75 6.75 0 016.75 6.75z" fill="#000"/></svg>